<?xml version="1.0" encoding="UTF-8" standalone="no"?>
<!-- Created with Inkscape (http://www.inkscape.org/) -->

<svg
   width="210mm"
   height="297mm"
   viewBox="0 0 210 297"
   version="1.1"
   id="svg11419"
   xmlns="http://www.w3.org/2000/svg"
   xmlns:svg="http://www.w3.org/2000/svg">
  <defs
     id="defs11416" />
  <g
     id="layer1">
    <path
       style="fill:none;stroke:#000000;stroke-width:0.264583px;stroke-linecap:butt;stroke-linejoin:miter;stroke-opacity:1"
       d="M 183.56958,157.70158 V 206.47855 110.26968 71.898836 149.57562 174.80821 85.92017 123.90606 96.657644 6.0615921 137.25348 167.17435"
       id="path11590" />
    <path
       style="fill:none;stroke:#000000;stroke-width:0.264583px;stroke-linecap:butt;stroke-linejoin:miter;stroke-opacity:1"
       d="m 209.34293,84.52611 29.1837,28.5797 -8.85516,-8.85517 -46.24104,-36.214308 138.26938,128.236358 -64.2434,-64.24339"
       id="path11592" />
    <path
       style="fill:none;stroke:#000000;stroke-width:0.264583px;stroke-linecap:butt;stroke-linejoin:miter;stroke-opacity:1"
       d="M 314.72457,80.441766 327.60536,67.560958 286.17193,80.36288 h 9.33752 l 60.95923,-12.756271 -37.64621,8.741971 -10.50433,4.133958 h -6.39832 l 21.03988,-8.268573"
       id="path11594" />
    <path
       style="fill:none;stroke:#000000;stroke-width:0.264583px;stroke-linecap:butt;stroke-linejoin:miter;stroke-opacity:1"
       d="M 320.42489,61.171405 209.2289,76.529052 327.79531,63.597161 270.89156,54.189541 248.63578,65.031594 310.3553,54.127763 h -15.80177 l 21.49417,2.699033 -29.38629,-2.671807 h 15.7766 -23.67317 l -45.70765,22.178838 29.9225,-22.194525"
       id="path11596" />
    <path
       style="fill:none;stroke:#000000;stroke-width:0.264583px;stroke-linecap:butt;stroke-linejoin:miter;stroke-opacity:1"
       d="M 305.00823,-27.722373 245.76856,62.235562"
       id="path11598" />
    <path
       style="fill:none;stroke:#000000;stroke-width:0.264583px;stroke-linecap:butt;stroke-linejoin:miter;stroke-opacity:1"
       d="M 335.29913,122.09476 H 259.34519"
       id="path11600" />
    <path
       style="fill:none;stroke:#000000;stroke-width:0.264583px;stroke-linecap:butt;stroke-linejoin:miter;stroke-opacity:1"
       d="m 231.62914,153.7575 -52.27396,3.88464 -9.57823,-17.53487 30.97448,22.50894 -53.4954,-45.02714 32.02125,32.02125 63.56704,-7.04988 -31.27358,20.08693 41.86175,-30.64226 -92.40383,-0.64227 -35.0491,-35.049096"
       id="path11602" />
    <path
       style="fill:none;stroke:#000000;stroke-width:0.264583px;stroke-linecap:butt;stroke-linejoin:miter;stroke-opacity:1"
       d="m 175.62455,92.697398 104.11806,-8.251952 h -53.67851 -5.95221 l -10.83205,4.13375 32.30534,-4.154689 h 44.66467 -21.81254 l -108.1014,-3.695173 -4.57389,-4.573887 120.35273,8.297172 -75.50346,8.028969 52.52851,-8.02273 -83.61752,5.49924 -5.19824,-5.19824 23.11354,7.894283 49.66978,-8.207428 h 23.57731"
       id="path11604" />
    <path
       style="fill:none;stroke:#000000;stroke-width:0.264583px;stroke-linecap:butt;stroke-linejoin:miter;stroke-opacity:1"
       d="m 51.062953,122.98787 h 11.181829 11.157849 26.051661 12.285938 11.23844 13.58207 l 5.50156,-5.50156 15.00109,-15.00109 8.44698,-8.446977 17.99096,-17.990963"
       id="path11606" />
    <path
       style="fill:none;stroke:#000000;stroke-width:0.264583px;stroke-linecap:butt;stroke-linejoin:miter;stroke-opacity:1"
       d="m 49.57197,196.72466 h 45.785762 10.434198 8.12318 8.27451 7.41273 8.0949 10.88425 l 7.03742,-2.46957 6.66286,-6.66285 5.95497,-5.95497 6.46296,-6.46295 12.89024,-0.31584"
       id="path11608" />
    <path
       style="fill:none;stroke:#000000;stroke-width:0.264583px;stroke-linecap:butt;stroke-linejoin:miter;stroke-opacity:1"
       d="M 55.382638,-17.101975 151.74588,68.129148"
       id="path11610" />
    <path
       style="fill:none;stroke:#000000;stroke-width:0.264583px;stroke-linecap:butt;stroke-linejoin:miter;stroke-opacity:1"
       d="m 5.1026765,73.136104 83.8763875,4.024437 h 7.007194 l 22.990382,-5.022302 h 9.08269 8.59186 15.16517 8.58775"
       id="path11612" />
    <path
       style="fill:none;stroke:#000000;stroke-width:0.264583px;stroke-linecap:butt;stroke-linejoin:miter;stroke-opacity:1"
       d="m 99.379613,240.37741 v -43.6736 -7.56016 -9.6838 -9.52987 -9.56156 -9.72699 -9.57727 -9.98884 -12.1754 -9.36321 -8.90259 -9.028927 L 95.964834,81.178884 h -7.014921"
       id="path11614" />
  </g>
</svg>
